<svg width="20" height="20" viewBox="0 0 16 16" fill="none" xmlns="http://www.w3.org/2000/svg">
<circle cx="1.5" cy="14.5" r="0.5" fill="#1f2328"/>
<circle cx="7.5" cy="14.5" r="0.5" fill="#1f2328"/>
<circle cx="7.5" cy="12.5" r="0.5" fill="#1f2328"/>
<circle cx="3.5" cy="9.5" r="0.5" fill="#1f2328"/>
<circle cx="1.5" cy="9.5" r="0.5" fill="#1f2328"/>
<line x1="7.5" y1="12.5" x2="7.5" y2="14.5" stroke="#1f2328"/>
<line x1="1.5" y1="14.5" x2="7.5" y2="14.5" stroke="#1f2328"/>
<line x1="1.5" y1="9.5" x2="1.5" y2="14.5" stroke="#1f2328"/>
<line x1="4" y1="12.5" x2="7.5" y2="12.5" stroke="#1f2328"/>
<line x1="3.5" y1="9.5" x2="3.5" y2="12" stroke="#1f2328"/>
<line x1="1.5" y1="9.5" x2="3.5" y2="9.5" stroke="#1f2328"/>
<path d="M2.5 10C2.22386 10 2 10.2239 2 10.5V10H2.5Z" fill="#1f2328"/>
<path d="M7 13.5C7 13.2239 6.77614 13 6.5 13H7V13.5Z" fill="#1f2328"/>
<path d="M3 10.5C3 10.2239 2.77614 10 2.5 10H3V10.5Z" fill="#1f2328"/>
<path d="M6.5 14C6.77614 14 7 13.7761 7 13.5V14H6.5Z" fill="#1f2328"/>
<path d="M2 13.5C2 13.7761 2.22386 14 2.5 14H2V13.5Z" fill="#1f2328"/>
<path d="M4 11C4 11.5523 4.44772 12 5 12C5 12.5523 4.55228 13 4 13C3.44772 13 3 12.5523 3 12C3 11.4477 3.44772 11 4 11Z" fill="#1f2328"/>
<path d="M1.5 14.5V9.5H3.5V12.5H7.5V14.5H1.5Z" fill="#1f2328" fill-opacity="0.5"/>
<circle cx="1.5" cy="1.5" r="0.5" transform="rotate(90 1.5 1.5)" fill="#1f2328"/>
<circle cx="1.5" cy="7.5" r="0.5" transform="rotate(90 1.5 7.5)" fill="#1f2328"/>
<circle cx="3.5" cy="7.5" r="0.5" transform="rotate(90 3.5 7.5)" fill="#1f2328"/>
<circle cx="6.5" cy="3.5" r="0.5" transform="rotate(90 6.5 3.5)" fill="#1f2328"/>
<circle cx="6.5" cy="1.5" r="0.5" transform="rotate(90 6.5 1.5)" fill="#1f2328"/>
<line x1="3.5" y1="7.5" x2="1.5" y2="7.5" stroke="#1f2328"/>
<line x1="1.5" y1="1.5" x2="1.5" y2="7.5" stroke="#1f2328"/>
<line x1="6.5" y1="1.5" x2="1.5" y2="1.5" stroke="#1f2328"/>
<line x1="3.5" y1="4" x2="3.5" y2="7.5" stroke="#1f2328"/>
<line x1="6.5" y1="3.5" x2="4" y2="3.5" stroke="#1f2328"/>
<line x1="6.5" y1="1.5" x2="6.5" y2="3.5" stroke="#1f2328"/>
<path d="M6 2.5C6 2.22386 5.77614 2 5.5 2H6V2.5Z" fill="#1f2328"/>
<path d="M2.5 7C2.77614 7 3 6.77614 3 6.5V7H2.5Z" fill="#1f2328"/>
<path d="M5.5 3C5.77614 3 6 2.77614 6 2.5V3H5.5Z" fill="#1f2328"/>
<path d="M2 6.5C2 6.77614 2.22386 7 2.5 7H2V6.5Z" fill="#1f2328"/>
<path d="M2.5 2C2.22386 2 2 2.22386 2 2.5V2H2.5Z" fill="#1f2328"/>
<path d="M5 4C4.44772 4 4 4.44772 4 5C3.44772 5 3 4.55228 3 4C3 3.44772 3.44772 3 4 3C4.55228 3 5 3.44772 5 4Z" fill="#1f2328"/>
<path d="M1.5 1.5H6.5V3.5H3.5V7.5H1.5V1.5Z" fill="#1f2328" fill-opacity="0.5"/>
<circle cx="14.5" cy="1.5" r="0.5" transform="rotate(180 14.5 1.5)" fill="#1f2328"/>
<circle cx="8.5" cy="1.5" r="0.5" transform="rotate(180 8.5 1.5)" fill="#1f2328"/>
<circle cx="8.5" cy="3.5" r="0.5" transform="rotate(180 8.5 3.5)" fill="#1f2328"/>
<circle cx="12.5" cy="6.5" r="0.5" transform="rotate(180 12.5 6.5)" fill="#1f2328"/>
<circle cx="14.5" cy="6.5" r="0.5" transform="rotate(180 14.5 6.5)" fill="#1f2328"/>
<line x1="8.5" y1="3.5" x2="8.5" y2="1.5" stroke="#1f2328"/>
<line x1="14.5" y1="1.5" x2="8.5" y2="1.5" stroke="#1f2328"/>
<line x1="14.5" y1="6.5" x2="14.5" y2="1.5" stroke="#1f2328"/>
<line x1="12" y1="3.5" x2="8.5" y2="3.5" stroke="#1f2328"/>
<line x1="12.5" y1="6.5" x2="12.5" y2="4" stroke="#1f2328"/>
<line x1="14.5" y1="6.5" x2="12.5" y2="6.5" stroke="#1f2328"/>
<path d="M13.5 6C13.7761 6 14 5.77614 14 5.5V6H13.5Z" fill="#1f2328"/>
<path d="M9 2.5C9 2.77614 9.22386 3 9.5 3H9V2.5Z" fill="#1f2328"/>
<path d="M13 5.5C13 5.77614 13.2239 6 13.5 6H13V5.5Z" fill="#1f2328"/>
<path d="M9.5 2C9.22386 2 9 2.22386 9 2.5V2H9.5Z" fill="#1f2328"/>
<path d="M14 2.5C14 2.22386 13.7761 2 13.5 2H14V2.5Z" fill="#1f2328"/>
<path d="M12 5C12 4.44772 11.5523 4 11 4C11 3.44772 11.4477 3 12 3C12.5523 3 13 3.44772 13 4C13 4.55228 12.5523 5 12 5Z" fill="#1f2328"/>
<path d="M14.5 1.5V6.5H12.5V3.5H8.5V1.5H14.5Z" fill="#1f2328" fill-opacity="0.5"/>
<circle cx="14.5" cy="14.5" r="0.5" transform="rotate(-90 14.5 14.5)" fill="#1f2328"/>
<circle cx="14.5" cy="8.5" r="0.5" transform="rotate(-90 14.5 8.5)" fill="#1f2328"/>
<circle cx="12.5" cy="8.5" r="0.5" transform="rotate(-90 12.5 8.5)" fill="#1f2328"/>
<circle cx="9.5" cy="12.5" r="0.5" transform="rotate(-90 9.5 12.5)" fill="#1f2328"/>
<circle cx="9.5" cy="14.5" r="0.5" transform="rotate(-90 9.5 14.5)" fill="#1f2328"/>
<line x1="12.5" y1="8.5" x2="14.5" y2="8.5" stroke="#1f2328"/>
<line x1="14.5" y1="14.5" x2="14.5" y2="8.5" stroke="#1f2328"/>
<line x1="9.5" y1="14.5" x2="14.5" y2="14.5" stroke="#1f2328"/>
<line x1="12.5" y1="12" x2="12.5" y2="8.5" stroke="#1f2328"/>
<line x1="9.5" y1="12.5" x2="12" y2="12.5" stroke="#1f2328"/>
<line x1="9.5" y1="14.5" x2="9.5" y2="12.5" stroke="#1f2328"/>
<path d="M10 13.5C10 13.7761 10.2239 14 10.5 14H10V13.5Z" fill="#1f2328"/>
<path d="M13.5 9C13.2239 9 13 9.22386 13 9.5V9H13.5Z" fill="#1f2328"/>
<path d="M10.5 13C10.2239 13 10 13.2239 10 13.5V13H10.5Z" fill="#1f2328"/>
<path d="M14 9.5C14 9.22386 13.7761 9 13.5 9H14V9.5Z" fill="#1f2328"/>
<path d="M13.5 14C13.7761 14 14 13.7761 14 13.5V14H13.5Z" fill="#1f2328"/>
<path d="M11 12C11.5523 12 12 11.5523 12 11C12.5523 11 13 11.4477 13 12C13 12.5523 12.5523 13 12 13C11.4477 13 11 12.5523 11 12Z" fill="#1f2328"/>
<path d="M14.5 14.5H9.5V12.5H12.5V8.5H14.5V14.5Z" fill="#1f2328" fill-opacity="0.5"/>
</svg>
